<?xml version="1.0" encoding="UTF-8"?>
<svg id="Layer_1" data-name="Layer 1" xmlns="http://www.w3.org/2000/svg" viewBox="0 0 160.16 126.66">
  <defs>
    <style>
      .cls-1 {
        fill: #fff;
      }

      .cls-2 {
        fill: #9d9795;
      }

      .cls-3 {
        fill: #cfb991;
      }
    </style>
  </defs>
  <g>
    <path class="cls-1" d="m29.96,43.53v7.4l3.83-.28c.95-.44,1.93-1.01,1.93-3.4,0-1.81-.08-3.72-3.59-3.72h-2.18Zm-3.65.07l-2.06-.6v-1.49h8.05c5.24,0,7.17,1.67,7.17,5.63,0,3.7-2.11,5.62-6.26,5.62h-3.26v5.93l2.09.6v1.38h-7.85v-1.38l2.11-.6v-15.1h0Z"/>
    <path class="cls-1" d="m66.76,43.54v7.3l3.88-.26c1.23-.61,1.83-1.59,1.83-3.6,0-2.11-.68-3.44-2.87-3.44h-2.83Zm2.6,8.97h-2.6v6.18l2.09.6v1.38h-7.85v-1.38l2.11-.6v-15.1l-2.09-.6v-1.49h8.4c4.98,0,6.79,1.77,6.79,5.16,0,2.62-1.02,3.99-3.39,4.93l3.55,6.93,2.29.76v1.38h-5.34l-3.96-8.16h0Z"/>
    <path class="cls-1" d="m85.99,43.54v15.15h2.74c1.88,0,5.13-.31,5.13-7.22,0-5.45-.98-7.93-5.13-7.93h-2.74Zm-5.76,15.75l2.09-.57v-15.12l-2.06-.6v-1.49h9.26c5.24,0,8.3,3.16,8.3,9.37,0,7.03-3.17,9.79-8.7,9.79h-8.89v-1.38h0Z"/>
    <path class="cls-1" d="m32.31,70.66c0,2.33-1.35,3.19-3.55,3.19s-3.55-1.31-3.55-3.19v-4.67l-1-.31v-.88h4.08v.88l-.99.31v4.67c0,1.2.46,1.86,1.78,1.86.64,0,1.73-.2,1.73-1.92v-4.61l-1-.31v-.88h3.51v.88l-1,.31v4.67h0Z"/>
    <polygon class="cls-1" points="39.35 68.25 39.35 72.54 40.34 72.84 40.34 73.71 36.89 73.71 36.89 72.84 37.9 72.54 37.9 66.46 37.47 65.92 36.88 65.73 36.88 64.79 39.13 64.79 43.48 70.26 43.48 65.99 42.48 65.68 42.48 64.79 45.93 64.79 45.93 65.68 44.93 65.99 44.93 73.72 43.76 73.72 39.35 68.25 39.35 68.25"/>
    <polygon class="cls-1" points="53.36 72.54 54.36 72.84 54.36 73.71 50.27 73.71 50.27 72.84 51.27 72.54 51.27 65.97 50.27 65.67 50.27 64.79 54.36 64.79 54.36 65.67 53.36 65.97 53.36 72.54 53.36 72.54"/>
    <polygon class="cls-1" points="108.53 72.54 109.53 72.84 109.53 73.71 105.43 73.71 105.43 72.84 106.43 72.54 106.43 65.97 105.43 65.67 105.43 64.79 109.53 64.79 109.53 65.67 108.53 65.97 108.53 72.54 108.53 72.54"/>
    <polygon class="cls-1" points="63.74 73.71 61.81 73.71 58.98 65.99 57.98 65.67 57.98 64.79 62.29 64.79 62.29 65.67 61.28 65.99 63.16 71.48 65.07 65.99 64.07 65.67 64.07 64.79 67.58 64.79 67.58 65.67 66.58 65.99 63.74 73.71 63.74 73.71"/>
    <polygon class="cls-1" points="71.85 65.99 70.85 65.68 70.85 64.79 77.85 64.79 77.92 67.55 76.8 67.55 76.26 65.97 73.94 65.97 73.94 68.48 76.26 68.48 76.26 69.75 73.94 69.75 73.94 72.56 76.32 72.56 77.03 71 78.13 71 77.97 73.71 70.85 73.71 70.85 72.84 71.85 72.59 71.85 65.99 71.85 65.99"/>
    <path class="cls-1" d="m85.73,65.99v3.12l1.41-.12c.47-.34.7-.93.7-1.55,0-.89-.23-1.45-1.15-1.45h-.96Zm.76,4.08h-.76v2.47l1,.3v.87h-4.1v-.87l1-.3v-6.55l-1-.3v-.89h4.07c2.49,0,3.26.96,3.26,2.47,0,.99-.22,1.89-1.44,2.33l1.43,2.91,1.25.39v.82h-3.01l-1.71-3.64h0Z"/>
    <path class="cls-1" d="m94.84,70.94h1.24l.27,1.25c.52.33,1.19.52,1.88.52.1,0,.19,0,.29-.01.35-.28.55-.64.55-1.07,0-2.08-4.27-1.16-4.27-4.2,0-1.4,1.28-2.73,3.4-2.73.77,0,1.63.22,2.42.61v2.35h-1.17l-.42-1.49c-.42-.18-1.01-.29-1.44-.29-.08,0-.16,0-.24.01-.4.28-.59.63-.59,1.05,0,1.78,4.23,1.14,4.23,4.13,0,1.61-1.46,2.77-3.42,2.77-.84,0-1.98-.28-2.71-.81v-2.08h-.01Z"/>
    <polygon class="cls-1" points="116.6 66 115.45 66 114.92 67.59 113.8 67.59 113.8 64.79 121.57 64.79 121.57 67.59 120.47 67.59 119.95 66 118.7 66 118.7 72.54 119.7 72.84 119.7 73.71 115.6 73.71 115.6 72.84 116.6 72.54 116.6 66 116.6 66"/>
    <polygon class="cls-1" points="128.56 70.28 126.22 65.99 125.22 65.67 125.22 64.79 129.53 64.79 129.53 65.67 128.52 65.99 129.99 68.89 131.47 65.99 130.47 65.67 130.47 64.79 133.99 64.79 133.99 65.67 132.99 65.99 130.64 70.25 130.64 72.54 131.64 72.84 131.64 73.71 127.55 73.71 127.55 72.84 128.56 72.54 128.56 70.28 128.56 70.28"/>
    <polygon class="cls-1" points="132.33 55.12 130.97 58.69 124.97 58.69 124.97 51.8 128.37 51.8 128.81 53.73 130.32 53.73 130.32 47.92 128.81 47.92 128.37 49.78 124.97 49.78 124.97 43.54 130.71 43.54 131.81 47.25 133.87 47.25 133.74 41.51 119.24 41.51 119.24 43 121.3 43.6 121.3 58.72 119.21 59.29 119.21 60.67 134.03 60.67 134.37 55.12 132.33 55.12 132.33 55.12"/>
    <path class="cls-1" d="m57.3,54.08c0,4.86-2.32,6.88-7.08,6.88-4.38,0-7.55-1.75-7.55-6.37v-10.99l-2.09-.6v-1.49h7.82v1.49l-2.09.6v10.99c0,2.76,1.28,3.98,4.33,3.98,2.1,0,4.04-1.23,4.04-4.23v-10.74l-2.06-.6v-1.49h6.75v1.49l-2.09.6v10.49h0Z"/>
    <path class="cls-1" d="m115.51,54.08c0,4.86-2.32,6.88-7.08,6.88-4.38,0-7.55-1.75-7.55-6.37v-10.99l-2.09-.6v-1.49h7.82v1.49l-2.09.6v10.99c0,2.76,1.28,3.98,4.33,3.98,2.1,0,4.04-1.23,4.04-4.23v-10.74l-2.06-.6v-1.49h6.75v1.49l-2.09.6v10.49h0Z"/>
    <path class="cls-2" d="m136.42,70.26c-.84,0-1.52.68-1.52,1.52s.68,1.52,1.52,1.52,1.52-.68,1.52-1.52-.68-1.52-1.52-1.52h0Zm0,3.43c-1.05,0-1.91-.86-1.91-1.91s.86-1.91,1.91-1.91,1.91.86,1.91,1.91-.86,1.91-1.91,1.91h0Z"/>
    <path class="cls-2" d="m136.18,71.64h.32c.21,0,.29-.08.29-.23s-.1-.23-.28-.23h-.33v.45h0Zm0,.31v.71h-.38v-1.77h.78c.39,0,.59.21.59.49,0,.24-.13.37-.26.42.09.03.22.12.22.44v.09c0,.12,0,.25.03.34h-.37c-.03-.08-.04-.21-.04-.4v-.03c0-.19-.05-.29-.33-.29h-.25Z"/>
  </g>
  <g>
    <path class="cls-3" d="m81.67,33l4.12-9.68h6.83c9.88,0,13.63-4.06,16.22-10.15.96-2.26,2.57-6.03.44-9.24-2.11-3.19-6.59-3.56-9.78-3.56h-36.29l-5.12,12.02h6.57l-3.65,8.59h-6.58l-5.12,12.02h32.36Z"/>
    <path class="cls-2" d="m107.43,5.16c-1.15-1.75-3.67-2.56-7.92-2.56h-34.81l-3.22,7.56h6.57l-5.56,13.05h-6.58l-3.22,7.57h27.51l3.22-7.57h-6.67l.9-2.11h14.97c9.63,0,12.2-4.16,14.17-8.79,1.06-2.49,1.98-5.1.64-7.14m-25.13,5h11c1.52,0,1.3.76,1.1,1.23-.56,1.32-1.91,2.14-3.52,2.14h-10.01l1.43-3.37Z"/>
    <path d="m99.51,3.76h-34.05l-2.23,5.24h6.57l-6.54,15.36h-6.58l-2.23,5.25h24.99l2.23-5.25h-6.67l1.89-4.43h15.74c9.02,0,11.29-3.82,13.11-8.09,1.82-4.27,2.8-8.09-6.22-8.09m-8.63,10.93h-11.76l2.42-5.69h11.76c2.08,0,2.92,1.07,2.16,2.84-.75,1.77-2.51,2.84-4.59,2.84"/>
  </g>
  <g>
    <path class="cls-1" d="m28.65,98.01c-.03.4-.2,2.26-2.17,2.26-2.08,0-2.29-1.95-2.29-3.87,0-2.33.66-3.82,2.37-3.82,1.92,0,2.06,1.69,2.08,2.24h-1.16c-.01-.25-.04-1.25-.94-1.25-.96,0-1.16,1.23-1.16,2.85,0,1.46.15,2.87,1.11,2.87.86,0,.96-.96.99-1.28h1.16Z"/>
    <path class="cls-1" d="m30.47,97.59c0,.85.12,1.71.9,1.71.73,0,.83-.65.85-.84h1.1c-.02.17-.17,1.79-1.97,1.79s-2.02-1.54-2.02-2.96c0-1.79.66-2.9,2.06-2.9,1.6,0,1.98,1.23,1.98,2.68,0,.17-.01.41-.02.52h-2.87Zm1.76-.84c0-.69-.11-1.42-.85-1.42-.85,0-.89,1.01-.9,1.42h1.75Z"/>
    <path class="cls-1" d="m34.29,96.25c0-1.17,0-1.47-.01-1.76h1.1c.02.14.03.38.03.64.18-.35.54-.74,1.29-.74.88,0,1.45.54,1.45,1.72v4.04h-1.14v-3.78c0-.61-.15-.99-.71-.99-.59,0-.86.35-.86,1.32v3.45h-1.14v-3.89Z"/>
    <path class="cls-1" d="m38.72,94.49h.76v-1.44h1.13v1.44h.91v.95h-.91v3.3c0,.35.07.55.48.55.13,0,.24,0,.34-.02v.85c-.22.1-.55.11-.75.11-.83,0-1.21-.31-1.21-1.29v-3.5h-.76v-.95Z"/>
    <path class="cls-1" d="m43.12,97.59c0,.85.12,1.71.9,1.71.73,0,.83-.65.85-.84h1.1c-.02.17-.17,1.79-1.97,1.79s-2.02-1.54-2.02-2.96c0-1.79.66-2.9,2.06-2.9,1.6,0,1.98,1.23,1.98,2.68,0,.17-.01.41-.02.52h-2.87Zm1.76-.84c0-.69-.11-1.42-.85-1.42-.85,0-.89,1.01-.9,1.42h1.75Z"/>
    <path class="cls-1" d="m46.94,96.41c0-.91,0-1.51-.01-1.92h1.09c.01.11.03.36.03.96.22-.66.74-1.05,1.49-1.05v1.27c-.94,0-1.45.38-1.45,1.44v3.04h-1.14v-3.74Z"/>
    <path class="cls-1" d="m52.44,100.15v-4.71h-.68v-.95h.68v-.63c0-.91.4-1.61,1.49-1.61.18,0,.4.02.51.05v.97c-.1-.02-.21-.03-.33-.03-.4,0-.52.23-.52.68v.56h.84v.95h-.84v4.71h-1.14Z"/>
    <path class="cls-1" d="m58.86,97.26c0,2.04-.73,2.99-2.08,2.99s-2.06-.92-2.06-2.97.83-2.89,2.11-2.89,2.02.98,2.02,2.87Zm-2.98.02c0,1.32.26,2,.92,2s.9-.68.9-1.99-.26-1.94-.9-1.94-.92.61-.92,1.93Z"/>
    <path class="cls-1" d="m59.81,96.41c0-.91,0-1.51-.01-1.92h1.09c.01.11.03.36.03.96.22-.66.74-1.05,1.49-1.05v1.27c-.94,0-1.45.38-1.45,1.44v3.04h-1.14v-3.74Z"/>
    <path class="cls-1" d="m65.28,92.69h1.16v3.03h2.01v-3.03h1.16v7.46h-1.16v-3.43h-2.01v3.43h-1.16v-7.46Z"/>
    <path class="cls-1" d="m71.77,97.59c0,.85.12,1.71.9,1.71.73,0,.83-.65.85-.84h1.1c-.02.17-.17,1.79-1.97,1.79s-2.02-1.54-2.02-2.96c0-1.79.66-2.9,2.06-2.9,1.59,0,1.98,1.23,1.98,2.68,0,.17-.01.41-.02.52h-2.87Zm1.76-.84c0-.69-.11-1.42-.85-1.42-.85,0-.89,1.01-.9,1.42h1.75Z"/>
    <path class="cls-1" d="m79.1,98.99c0,.31.03.92.04,1.16h-1.03c-.02-.12-.06-.38-.06-.56-.21.39-.6.66-1.3.66-1.08,0-1.5-.86-1.5-1.66,0-1.12.77-1.85,2.22-1.85.21,0,.36,0,.51.02v-.67c0-.36-.07-.8-.69-.8s-.7.43-.74.8h-1.08c.02-.83.41-1.69,1.86-1.69,1.17,0,1.76.55,1.76,1.62v2.98Zm-1.09-1.4c-.13-.02-.26-.02-.47-.02-.83,0-1.14.4-1.14.91,0,.41.2.83.73.83.71,0,.89-.53.89-1.49v-.23Z"/>
    <path class="cls-1" d="m80.33,100.15v-7.82h1.14v7.82h-1.14Z"/>
    <path class="cls-1" d="m82.16,94.49h.76v-1.44h1.13v1.44h.91v.95h-.91v3.3c0,.35.07.55.48.55.13,0,.24,0,.34-.02v.85c-.22.1-.55.11-.75.11-.83,0-1.21-.31-1.21-1.29v-3.5h-.76v-.95Z"/>
    <path class="cls-1" d="m86.82,92.33v2.76c.21-.4.59-.69,1.3-.69.9,0,1.42.57,1.42,1.75v4h-1.14v-3.77c0-.61-.13-1-.74-1-.64,0-.84.51-.84,1.34v3.43h-1.13v-7.82h1.13Z"/>
    <path class="cls-1" d="m96.45,96.75h-2.42v2.4h2.71l-.14,1h-3.71v-7.46h3.69v1.02h-2.54v2.02h2.42v1.01Z"/>
    <path class="cls-1" d="m98.47,94.49c.48,1.05.74,1.56.87,1.87h.01c.17-.39.48-1.02.89-1.87h1.2l-1.45,2.67,1.46,2.98h-1.27c-.47-1.06-.74-1.64-.87-1.97h-.01c-.13.3-.5,1.09-.9,1.97h-1.21l1.44-2.83-1.41-2.83h1.24Z"/>
    <path class="cls-1" d="m105.59,98.3c-.02.4-.13,1.95-1.92,1.95-1.57,0-1.98-1.3-1.98-2.97,0-1.53.51-2.88,2.05-2.88,1.78,0,1.85,1.57,1.86,1.88h-1.16c-.01-.22-.05-.94-.71-.94s-.88.73-.88,1.95.23,2,.86,2c.68,0,.75-.68.78-.99h1.11Z"/>
    <path class="cls-1" d="m107.41,97.59c0,.85.12,1.71.9,1.71.73,0,.83-.65.85-.84h1.1c-.02.17-.17,1.79-1.97,1.79s-2.02-1.54-2.02-2.96c0-1.79.66-2.9,2.06-2.9,1.6,0,1.98,1.23,1.98,2.68,0,.17-.01.41-.02.52h-2.87Zm1.76-.84c0-.69-.11-1.42-.85-1.42-.85,0-.89,1.01-.9,1.42h1.75Z"/>
    <path class="cls-1" d="m111.22,100.15v-7.82h1.14v7.82h-1.14Z"/>
    <path class="cls-1" d="m113.58,100.15v-7.82h1.14v7.82h-1.14Z"/>
    <path class="cls-1" d="m116.81,97.59c0,.85.12,1.71.9,1.71.73,0,.83-.65.85-.84h1.1c-.02.17-.17,1.79-1.97,1.79s-2.02-1.54-2.02-2.96c0-1.79.66-2.9,2.06-2.9,1.59,0,1.98,1.23,1.98,2.68,0,.17-.01.41-.02.52h-2.87Zm1.76-.84c0-.69-.11-1.42-.85-1.42-.85,0-.89,1.01-.9,1.42h1.75Z"/>
    <path class="cls-1" d="m120.63,96.25c0-1.17,0-1.47-.01-1.76h1.1c.02.14.03.38.03.64.18-.35.54-.74,1.29-.74.88,0,1.45.54,1.45,1.72v4.04h-1.14v-3.78c0-.61-.15-.99-.71-.99-.59,0-.86.35-.86,1.32v3.45h-1.14v-3.89Z"/>
    <path class="cls-1" d="m129.34,98.3c-.02.4-.13,1.95-1.92,1.95-1.57,0-1.98-1.3-1.98-2.97,0-1.53.51-2.88,2.05-2.88,1.78,0,1.85,1.57,1.86,1.88h-1.16c-.01-.22-.05-.94-.71-.94s-.88.73-.88,1.95.23,2,.86,2c.68,0,.75-.68.78-.99h1.11Z"/>
    <path class="cls-1" d="m131.15,97.59c0,.85.12,1.71.9,1.71.73,0,.83-.65.85-.84h1.1c-.02.17-.17,1.79-1.97,1.79s-2.02-1.54-2.02-2.96c0-1.79.66-2.9,2.06-2.9,1.6,0,1.98,1.23,1.98,2.68,0,.17-.01.41-.02.52h-2.87Zm1.76-.84c0-.69-.11-1.42-.85-1.42-.85,0-.89,1.01-.9,1.42h1.75Z"/>
    <path class="cls-1" d="m134.4,101.35c.37-1.01.6-2.11.64-2.78h1.08c-.09,1.03-.43,2.13-.8,2.78h-.91Z"/>
    <path class="cls-1" d="m40.98,108.36c0,1.43-.2,2.44-.64,3.08l1.2.91-.67.8-1.38-1.04c-.26.11-.56.15-.89.15-1.57,0-2.31-1.22-2.31-3.92s.86-3.77,2.37-3.77c1.6,0,2.32,1.21,2.32,3.79Zm-3.5-.02c0,1.89.32,2.95,1.16,2.95s1.16-1,1.16-2.94-.31-2.78-1.16-2.78-1.16.98-1.16,2.77Z"/>
    <path class="cls-1" d="m45.82,110.52c0,.79,0,1.34.01,1.63h-1.09c-.03-.17-.04-.42-.06-.66-.23.53-.66.76-1.29.76-.75,0-1.41-.35-1.41-1.69v-4.06h1.14v3.8c0,.62.14.98.67.98s.87-.31.87-1.32v-3.46h1.14v4.03Z"/>
    <path class="cls-1" d="m50.59,110.99c0,.31.03.92.04,1.16h-1.03c-.02-.12-.05-.38-.05-.56-.21.39-.61.66-1.3.66-1.08,0-1.5-.86-1.5-1.66,0-1.12.77-1.85,2.22-1.85.21,0,.36,0,.51.02v-.67c0-.36-.07-.8-.69-.8s-.7.43-.74.8h-1.08c.02-.83.41-1.69,1.86-1.69,1.17,0,1.76.55,1.76,1.62v2.98Zm-1.09-1.4c-.13-.02-.26-.02-.47-.02-.83,0-1.14.4-1.14.91,0,.41.2.83.73.83.71,0,.89-.53.89-1.49v-.23Z"/>
    <path class="cls-1" d="m51.82,112.15v-7.82h1.14v7.82h-1.14Z"/>
    <path class="cls-1" d="m54.17,106.49h1.14v5.66h-1.14v-5.66Zm.01-.91v-1.25h1.14v1.25h-1.14Z"/>
    <path class="cls-1" d="m56.01,106.49h.76v-1.44h1.13v1.44h.91v.95h-.91v3.3c0,.35.07.55.48.55.13,0,.24,0,.34-.02v.85c-.22.1-.55.11-.75.11-.83,0-1.21-.31-1.21-1.29v-3.5h-.76v-.95Z"/>
    <path class="cls-1" d="m60.5,106.49c.48,2,.9,3.6.97,4.26h.01c.13-.76.55-2.51.98-4.26h1.16l-1.64,5.92c-.47,1.73-1.03,1.87-1.83,1.87-.14,0-.34-.01-.47-.04v-.97c.08.01.26.02.4.02.53,0,.69-.3.87-1.06l-1.68-5.74h1.24Z"/>
    <path class="cls-1" d="m69.91,110.99c0,.31.03.92.04,1.16h-1.03c-.02-.12-.05-.38-.05-.56-.21.39-.61.66-1.3.66-1.08,0-1.5-.86-1.5-1.66,0-1.12.77-1.85,2.22-1.85.21,0,.36,0,.51.02v-.67c0-.36-.07-.8-.69-.8s-.7.43-.74.8h-1.08c.02-.83.41-1.69,1.86-1.69,1.17,0,1.76.55,1.76,1.62v2.98Zm-1.09-1.4c-.13-.02-.26-.02-.47-.02-.83,0-1.14.4-1.14.91,0,.41.2.83.73.83.71,0,.89-.53.89-1.49v-.23Z"/>
    <path class="cls-1" d="m71.14,108.25c0-1.17,0-1.47-.01-1.76h1.1c.02.14.03.38.03.64.18-.35.54-.74,1.29-.74.88,0,1.45.54,1.45,1.72v4.04h-1.14v-3.78c0-.61-.15-.99-.71-.99-.59,0-.86.35-.86,1.32v3.45h-1.14v-3.89Z"/>
    <path class="cls-1" d="m80.02,104.33v6.29c0,.63,0,1.2.01,1.53h-1.1c-.01-.14-.03-.46-.03-.66-.17.44-.52.76-1.29.76-1.18,0-1.66-1.04-1.66-2.98,0-1.75.59-2.87,1.87-2.87.65,0,.95.25,1.06.5v-2.56h1.14Zm-2.04,6.94c.75,0,.92-.59.92-2.02s-.14-1.87-.86-1.87c-.58,0-.95.47-.95,1.91s.29,1.98.88,1.98Z"/>
    <path class="cls-1" d="m84.53,104.69v7.46h-1.16v-7.46h1.16Z"/>
    <path class="cls-1" d="m85.7,108.25c0-1.17,0-1.47-.01-1.76h1.1c.02.14.03.38.03.64.18-.35.54-.74,1.29-.74.88,0,1.45.54,1.45,1.72v4.04h-1.14v-3.78c0-.61-.15-.99-.71-.99-.59,0-.86.35-.86,1.32v3.45h-1.14v-3.89Z"/>
    <path class="cls-1" d="m90.77,108.25c0-1.17,0-1.47-.01-1.76h1.1c.02.14.03.38.03.64.18-.35.54-.74,1.29-.74.88,0,1.45.54,1.45,1.72v4.04h-1.14v-3.78c0-.61-.15-.99-.71-.99-.59,0-.86.35-.86,1.32v3.45h-1.14v-3.89Z"/>
    <path class="cls-1" d="m99.71,109.26c0,2.04-.73,2.99-2.08,2.99s-2.06-.92-2.06-2.97.83-2.89,2.11-2.89,2.02.98,2.02,2.87Zm-2.98.02c0,1.32.26,2,.92,2s.9-.68.9-1.99-.26-1.94-.9-1.94-.92.61-.92,1.93Z"/>
    <path class="cls-1" d="m101.34,106.49c.39,1.68.83,3.59.95,4.45h.01c.1-.79.69-2.98,1.01-4.45h1.14l-1.6,5.66h-1.23l-1.51-5.66h1.22Z"/>
    <path class="cls-1" d="m108.52,110.99c0,.31.03.92.04,1.16h-1.03c-.02-.12-.05-.38-.05-.56-.21.39-.61.66-1.3.66-1.08,0-1.5-.86-1.5-1.66,0-1.12.77-1.85,2.22-1.85.21,0,.36,0,.51.02v-.67c0-.36-.07-.8-.69-.8s-.7.43-.74.8h-1.08c.02-.83.41-1.69,1.86-1.69,1.17,0,1.76.55,1.76,1.62v2.98Zm-1.09-1.4c-.13-.02-.26-.02-.47-.02-.83,0-1.14.4-1.14.91,0,.41.2.83.73.83.71,0,.89-.53.89-1.49v-.23Z"/>
    <path class="cls-1" d="m109.11,106.49h.76v-1.44h1.13v1.44h.91v.95h-.91v3.3c0,.35.07.55.48.55.13,0,.24,0,.34-.02v.85c-.22.1-.55.11-.75.11-.83,0-1.21-.31-1.21-1.29v-3.5h-.76v-.95Z"/>
    <path class="cls-1" d="m112.63,106.49h1.14v5.66h-1.14v-5.66Zm.01-.91v-1.25h1.14v1.25h-1.14Z"/>
    <path class="cls-1" d="m118.87,109.26c0,2.04-.73,2.99-2.08,2.99s-2.06-.92-2.06-2.97.83-2.89,2.11-2.89,2.02.98,2.02,2.87Zm-2.98.02c0,1.32.26,2,.92,2s.9-.68.9-1.99-.26-1.94-.9-1.94-.92.61-.92,1.93Z"/>
    <path class="cls-1" d="m119.82,108.25c0-1.17,0-1.47-.01-1.76h1.1c.02.14.03.38.03.64.18-.35.54-.74,1.29-.74.88,0,1.45.54,1.45,1.72v4.04h-1.14v-3.78c0-.61-.15-.99-.71-.99-.59,0-.86.35-.86,1.32v3.45h-1.14v-3.89Z"/>
  </g>
</svg>