<?xml version="1.0" encoding="UTF-8"?>
<svg id="Layer_1" data-name="Layer 1" xmlns="http://www.w3.org/2000/svg" viewBox="0 0 340.4 36.24">
  <defs>
    <style>
      .cls-1 {
        fill: #9d9795;
      }

      .cls-2 {
        fill: #cfb991;
      }

      .cls-3 {
        fill: #231f20;
      }
    </style>
  </defs>
  <g>
    <path class="cls-3" d="m207.96,13.71c-.03.4-.2,2.26-2.17,2.26-2.08,0-2.29-1.95-2.29-3.87,0-2.33.66-3.82,2.37-3.82,1.91,0,2.06,1.69,2.08,2.24h-1.16c-.01-.25-.04-1.25-.93-1.25-.96,0-1.16,1.23-1.16,2.85,0,1.46.15,2.87,1.11,2.87.86,0,.96-.96.99-1.28h1.15Z"/>
    <path class="cls-3" d="m209.79,13.29c0,.85.12,1.71.9,1.71.73,0,.83-.65.85-.84h1.1c-.02.17-.17,1.79-1.97,1.79s-2.02-1.54-2.02-2.96c0-1.79.66-2.9,2.06-2.9,1.59,0,1.98,1.23,1.98,2.68,0,.17-.01.41-.02.52h-2.87Zm1.76-.84c0-.69-.11-1.42-.85-1.42-.85,0-.89,1.01-.9,1.42h1.75Z"/>
    <path class="cls-3" d="m213.61,11.95c0-1.17,0-1.47-.01-1.76h1.1c.02.14.03.38.03.64.18-.35.54-.74,1.29-.74.88,0,1.45.54,1.45,1.72v4.04h-1.14v-3.78c0-.61-.15-.99-.71-.99-.59,0-.86.35-.86,1.32v3.45h-1.14v-3.89Z"/>
    <path class="cls-3" d="m218.04,10.19h.76v-1.44h1.13v1.44h.91v.95h-.91v3.3c0,.35.07.55.48.55.13,0,.24,0,.34-.02v.85c-.22.1-.55.11-.75.11-.82,0-1.21-.31-1.21-1.29v-3.5h-.76v-.95Z"/>
    <path class="cls-3" d="m222.44,13.29c0,.85.12,1.71.9,1.71.73,0,.83-.65.85-.84h1.1c-.02.17-.17,1.79-1.97,1.79s-2.02-1.54-2.02-2.96c0-1.79.66-2.9,2.06-2.9,1.59,0,1.98,1.23,1.98,2.68,0,.17-.01.41-.02.52h-2.87Zm1.76-.84c0-.69-.11-1.42-.85-1.42-.85,0-.89,1.01-.9,1.42h1.75Z"/>
    <path class="cls-3" d="m226.26,12.11c0-.91,0-1.51-.01-1.92h1.09c.01.11.03.36.03.96.22-.66.74-1.05,1.49-1.05v1.27c-.94,0-1.45.38-1.45,1.44v3.04h-1.14v-3.74Z"/>
    <path class="cls-3" d="m231.76,15.85v-4.71h-.68v-.95h.68v-.63c0-.91.4-1.61,1.48-1.61.18,0,.4.02.51.05v.97c-.1-.02-.21-.03-.33-.03-.4,0-.52.23-.52.68v.56h.84v.95h-.84v4.71h-1.14Z"/>
    <path class="cls-3" d="m238.18,12.96c0,2.04-.73,2.99-2.08,2.99s-2.06-.92-2.06-2.97.83-2.89,2.11-2.89,2.02.98,2.02,2.87Zm-2.98.02c0,1.32.26,2,.92,2s.9-.68.9-1.99-.26-1.94-.9-1.94-.92.61-.92,1.93Z"/>
    <path class="cls-3" d="m239.13,12.11c0-.91,0-1.51-.01-1.92h1.09c.01.11.03.36.03.96.22-.66.74-1.05,1.49-1.05v1.27c-.94,0-1.45.38-1.45,1.44v3.04h-1.14v-3.74Z"/>
    <path class="cls-3" d="m244.59,8.39h1.16v3.03h2.01v-3.03h1.16v7.46h-1.16v-3.43h-2.01v3.43h-1.16v-7.46Z"/>
    <path class="cls-3" d="m251.08,13.29c0,.85.12,1.71.9,1.71.73,0,.83-.65.85-.84h1.1c-.02.17-.17,1.79-1.97,1.79s-2.02-1.54-2.02-2.96c0-1.79.66-2.9,2.06-2.9,1.6,0,1.98,1.23,1.98,2.68,0,.17-.01.41-.02.52h-2.87Zm1.76-.84c0-.69-.11-1.42-.85-1.42-.85,0-.89,1.01-.9,1.42h1.75Z"/>
    <path class="cls-3" d="m258.42,14.69c0,.31.03.92.04,1.16h-1.03c-.02-.12-.05-.38-.05-.56-.21.39-.61.66-1.3.66-1.08,0-1.5-.86-1.5-1.66,0-1.12.77-1.85,2.22-1.85.21,0,.36,0,.51.02v-.67c0-.36-.07-.8-.69-.8s-.7.43-.74.8h-1.08c.02-.83.41-1.69,1.86-1.69,1.17,0,1.76.55,1.76,1.62v2.98Zm-1.09-1.4c-.13-.02-.26-.02-.47-.02-.83,0-1.14.4-1.14.91,0,.41.2.83.73.83.71,0,.89-.53.89-1.49v-.23Z"/>
    <path class="cls-3" d="m259.65,15.85v-7.82h1.14v7.82h-1.14Z"/>
    <path class="cls-3" d="m261.48,10.19h.76v-1.44h1.13v1.44h.91v.95h-.91v3.3c0,.35.07.55.48.55.13,0,.24,0,.34-.02v.85c-.22.1-.55.11-.75.11-.82,0-1.21-.31-1.21-1.29v-3.5h-.76v-.95Z"/>
    <path class="cls-3" d="m266.14,8.02v2.76c.21-.4.59-.69,1.3-.69.9,0,1.42.57,1.42,1.75v4h-1.14v-3.77c0-.61-.13-1-.74-1-.64,0-.84.51-.84,1.34v3.43h-1.13v-7.82h1.13Z"/>
    <path class="cls-3" d="m275.77,12.45h-2.42v2.4h2.71l-.14,1h-3.71v-7.46h3.69v1.02h-2.54v2.02h2.42v1.01Z"/>
    <path class="cls-3" d="m277.79,10.19c.48,1.05.74,1.56.87,1.87h.01c.17-.39.48-1.02.89-1.87h1.2l-1.45,2.67,1.46,2.98h-1.26c-.47-1.06-.74-1.64-.87-1.97h-.01c-.13.3-.5,1.09-.9,1.97h-1.21l1.44-2.83-1.41-2.83h1.24Z"/>
    <path class="cls-3" d="m284.91,14c-.02.4-.13,1.95-1.93,1.95-1.57,0-1.98-1.3-1.98-2.97,0-1.53.51-2.88,2.05-2.88,1.78,0,1.85,1.57,1.86,1.88h-1.16c-.01-.22-.05-.94-.71-.94s-.88.73-.88,1.95.23,2,.86,2c.68,0,.75-.68.78-.99h1.11Z"/>
    <path class="cls-3" d="m286.72,13.29c0,.85.12,1.71.9,1.71.73,0,.83-.65.85-.84h1.1c-.02.17-.17,1.79-1.97,1.79s-2.02-1.54-2.02-2.96c0-1.79.66-2.9,2.06-2.9,1.59,0,1.98,1.23,1.98,2.68,0,.17-.01.41-.02.52h-2.87Zm1.76-.84c0-.69-.11-1.42-.85-1.42-.85,0-.89,1.01-.9,1.42h1.75Z"/>
    <path class="cls-3" d="m290.54,15.85v-7.82h1.14v7.82h-1.14Z"/>
    <path class="cls-3" d="m292.89,15.85v-7.82h1.14v7.82h-1.14Z"/>
    <path class="cls-3" d="m296.13,13.29c0,.85.12,1.71.9,1.71.73,0,.83-.65.85-.84h1.1c-.02.17-.17,1.79-1.97,1.79s-2.02-1.54-2.02-2.96c0-1.79.66-2.9,2.06-2.9,1.6,0,1.98,1.23,1.98,2.68,0,.17-.01.41-.02.52h-2.87Zm1.76-.84c0-.69-.11-1.42-.85-1.42-.85,0-.89,1.01-.9,1.42h1.75Z"/>
    <path class="cls-3" d="m299.94,11.95c0-1.17,0-1.47-.01-1.76h1.1c.02.14.03.38.03.64.18-.35.54-.74,1.29-.74.88,0,1.45.54,1.45,1.72v4.04h-1.14v-3.78c0-.61-.15-.99-.71-.99-.59,0-.86.35-.86,1.32v3.45h-1.14v-3.89Z"/>
    <path class="cls-3" d="m308.66,14c-.02.4-.13,1.95-1.93,1.95-1.57,0-1.98-1.3-1.98-2.97,0-1.53.51-2.88,2.05-2.88,1.78,0,1.85,1.57,1.86,1.88h-1.16c-.01-.22-.05-.94-.71-.94s-.88.73-.88,1.95.23,2,.86,2c.68,0,.75-.68.78-.99h1.11Z"/>
    <path class="cls-3" d="m310.47,13.29c0,.85.12,1.71.9,1.71.73,0,.83-.65.85-.84h1.1c-.02.17-.17,1.79-1.97,1.79s-2.02-1.54-2.02-2.96c0-1.79.66-2.9,2.06-2.9,1.59,0,1.98,1.23,1.98,2.68,0,.17-.01.41-.02.52h-2.87Zm1.76-.84c0-.69-.11-1.42-.85-1.42-.85,0-.89,1.01-.9,1.42h1.75Z"/>
    <path class="cls-3" d="m313.71,17.04c.37-1.01.61-2.11.64-2.78h1.08c-.09,1.03-.43,2.13-.8,2.78h-.91Z"/>
    <path class="cls-3" d="m208.2,24.06c0,1.43-.2,2.44-.64,3.08l1.2.91-.67.8-1.38-1.04c-.26.11-.56.15-.89.15-1.57,0-2.31-1.22-2.31-3.92s.86-3.77,2.37-3.77c1.59,0,2.32,1.21,2.32,3.79Zm-3.5-.02c0,1.89.32,2.95,1.15,2.95s1.16-1,1.16-2.94-.31-2.78-1.16-2.78-1.15.98-1.15,2.77Z"/>
    <path class="cls-3" d="m213.04,26.22c0,.79,0,1.34.01,1.63h-1.09c-.03-.17-.04-.42-.05-.66-.23.53-.66.76-1.29.76-.75,0-1.41-.35-1.41-1.69v-4.06h1.14v3.8c0,.62.14.98.67.98s.87-.31.87-1.32v-3.46h1.14v4.03Z"/>
    <path class="cls-3" d="m217.8,26.69c0,.31.03.92.04,1.16h-1.03c-.02-.12-.06-.38-.06-.56-.21.39-.6.66-1.3.66-1.08,0-1.5-.86-1.5-1.66,0-1.12.77-1.85,2.22-1.85.21,0,.36,0,.51.02v-.67c0-.36-.07-.8-.69-.8s-.7.43-.74.8h-1.08c.02-.83.41-1.69,1.86-1.69,1.17,0,1.76.55,1.76,1.62v2.98Zm-1.09-1.4c-.13-.02-.26-.02-.47-.02-.83,0-1.14.4-1.14.91,0,.41.2.83.73.83.71,0,.89-.53.89-1.49v-.23Z"/>
    <path class="cls-3" d="m219.03,27.85v-7.82h1.14v7.82h-1.14Z"/>
    <path class="cls-3" d="m221.38,22.19h1.14v5.66h-1.14v-5.66Zm.01-.91v-1.25h1.14v1.25h-1.14Z"/>
    <path class="cls-3" d="m223.22,22.19h.76v-1.44h1.13v1.44h.91v.95h-.91v3.3c0,.35.07.55.48.55.13,0,.24,0,.34-.02v.85c-.22.1-.55.11-.75.11-.83,0-1.21-.31-1.21-1.29v-3.5h-.76v-.95Z"/>
    <path class="cls-3" d="m227.71,22.19c.48,2,.9,3.6.97,4.26h.01c.13-.76.55-2.51.98-4.26h1.16l-1.64,5.92c-.47,1.73-1.03,1.87-1.83,1.87-.14,0-.34-.01-.47-.04v-.97c.08.01.26.02.4.02.53,0,.69-.3.87-1.06l-1.68-5.74h1.24Z"/>
    <path class="cls-3" d="m237.12,26.69c0,.31.03.92.04,1.16h-1.03c-.02-.12-.06-.38-.06-.56-.21.39-.6.66-1.3.66-1.08,0-1.5-.86-1.5-1.66,0-1.12.77-1.85,2.22-1.85.21,0,.36,0,.51.02v-.67c0-.36-.07-.8-.69-.8s-.7.43-.74.8h-1.08c.02-.83.41-1.69,1.86-1.69,1.17,0,1.76.55,1.76,1.62v2.98Zm-1.09-1.4c-.13-.02-.26-.02-.47-.02-.83,0-1.14.4-1.14.91,0,.41.2.83.73.83.71,0,.89-.53.89-1.49v-.23Z"/>
    <path class="cls-3" d="m238.36,23.95c0-1.17,0-1.47-.01-1.76h1.1c.02.14.03.38.03.64.18-.35.54-.74,1.29-.74.88,0,1.45.54,1.45,1.72v4.04h-1.14v-3.78c0-.61-.15-.99-.71-.99-.59,0-.86.35-.86,1.32v3.45h-1.14v-3.89Z"/>
    <path class="cls-3" d="m247.23,20.02v6.29c0,.63,0,1.2.01,1.53h-1.1c-.01-.14-.03-.46-.03-.66-.17.44-.52.76-1.29.76-1.18,0-1.66-1.04-1.66-2.98,0-1.75.59-2.87,1.87-2.87.65,0,.95.25,1.06.5v-2.56h1.14Zm-2.04,6.94c.75,0,.92-.59.92-2.02s-.14-1.87-.86-1.87c-.58,0-.95.47-.95,1.91s.29,1.98.88,1.98Z"/>
    <path class="cls-3" d="m251.74,20.39v7.46h-1.16v-7.46h1.16Z"/>
    <path class="cls-3" d="m252.91,23.95c0-1.17,0-1.47-.01-1.76h1.1c.02.14.03.38.03.64.18-.35.54-.74,1.29-.74.88,0,1.45.54,1.45,1.72v4.04h-1.14v-3.78c0-.61-.15-.99-.71-.99-.59,0-.86.35-.86,1.32v3.45h-1.14v-3.89Z"/>
    <path class="cls-3" d="m257.98,23.95c0-1.17,0-1.47-.01-1.76h1.1c.02.14.03.38.03.64.18-.35.54-.74,1.29-.74.88,0,1.45.54,1.45,1.72v4.04h-1.14v-3.78c0-.61-.15-.99-.71-.99-.59,0-.86.35-.86,1.32v3.45h-1.14v-3.89Z"/>
    <path class="cls-3" d="m266.92,24.96c0,2.04-.73,2.99-2.08,2.99s-2.06-.92-2.06-2.97.83-2.89,2.11-2.89,2.02.98,2.02,2.87Zm-2.98.02c0,1.32.26,2,.92,2s.9-.68.9-1.99-.26-1.94-.9-1.94-.92.61-.92,1.93Z"/>
    <path class="cls-3" d="m268.55,22.19c.38,1.68.83,3.59.95,4.45h.01c.1-.79.69-2.98,1.01-4.45h1.14l-1.6,5.66h-1.23l-1.51-5.66h1.22Z"/>
    <path class="cls-3" d="m275.73,26.69c0,.31.03.92.04,1.16h-1.03c-.02-.12-.06-.38-.06-.56-.21.39-.6.66-1.3.66-1.08,0-1.5-.86-1.5-1.66,0-1.12.77-1.85,2.22-1.85.21,0,.36,0,.51.02v-.67c0-.36-.07-.8-.69-.8s-.7.43-.74.8h-1.08c.02-.83.41-1.69,1.86-1.69,1.17,0,1.76.55,1.76,1.62v2.98Zm-1.09-1.4c-.13-.02-.26-.02-.47-.02-.83,0-1.14.4-1.14.91,0,.41.2.83.73.83.71,0,.89-.53.89-1.49v-.23Z"/>
    <path class="cls-3" d="m276.33,22.19h.76v-1.44h1.13v1.44h.91v.95h-.91v3.3c0,.35.07.55.48.55.13,0,.24,0,.34-.02v.85c-.22.1-.55.11-.75.11-.82,0-1.21-.31-1.21-1.29v-3.5h-.76v-.95Z"/>
    <path class="cls-3" d="m279.85,22.19h1.14v5.66h-1.14v-5.66Zm.01-.91v-1.25h1.14v1.25h-1.14Z"/>
    <path class="cls-3" d="m286.08,24.96c0,2.04-.73,2.99-2.08,2.99s-2.06-.92-2.06-2.97.83-2.89,2.11-2.89,2.02.98,2.02,2.87Zm-2.98.02c0,1.32.26,2,.92,2s.9-.68.9-1.99-.26-1.94-.9-1.94-.92.61-.92,1.93Z"/>
    <path class="cls-3" d="m287.03,23.95c0-1.17,0-1.47-.01-1.76h1.1c.02.14.03.38.03.64.18-.35.54-.74,1.29-.74.88,0,1.45.54,1.45,1.72v4.04h-1.14v-3.78c0-.61-.15-.99-.71-.99-.59,0-.86.35-.86,1.32v3.45h-1.14v-3.89Z"/>
  </g>
  <rect class="cls-1" x="191.33" y="1.42" width=".72" height="32.81"/>
  <g>
    <path d="m32.33,34.13l4.12-9.67h6.82c9.87,0,13.62-4.05,16.21-10.14.96-2.25,2.56-6.03.44-9.23-2.11-3.19-6.59-3.56-9.77-3.56H13.9l-5.11,12.01h6.56l-3.65,8.58h-6.58L0,34.13h32.33Z"/>
    <path class="cls-1" d="m58.07,6.32c-1.15-1.75-3.67-2.56-7.91-2.56H15.37l-3.22,7.56h6.56l-5.55,13.04h-6.58l-3.22,7.56h27.49l3.22-7.56h-6.67l.9-2.11h14.96c9.62,0,12.19-4.16,14.16-8.79,1.06-2.49,1.98-5.1.64-7.13m-25.11,5h10.99c1.51,0,1.3.76,1.1,1.23-.56,1.32-1.91,2.14-3.52,2.14h-10l1.43-3.37Z"/>
    <path class="cls-2" d="m50.16,4.92H16.14l-2.23,5.24h6.56l-6.54,15.35h-6.58l-2.23,5.24h24.97l2.23-5.24h-6.67l1.89-4.43h15.73c9.01,0,11.28-3.82,13.09-8.08,1.81-4.26,2.8-8.08-6.21-8.08m-8.63,10.92h-11.75l2.42-5.68h11.75c2.08,0,2.92,1.07,2.16,2.84-.75,1.77-2.5,2.84-4.58,2.84"/>
  </g>
  <g>
    <path d="m71.25,4.06l-2.06-.6v-1.48h8.03c5.23,0,7.16,1.67,7.16,5.62,0,3.69-2.11,5.61-6.24,5.61h-3.25v5.92l2.08.6v1.38h-7.83v-1.38l2.11-.6V4.06Zm3.64-.07v7.39l3.83-.28c.95-.44,1.93-1.01,1.93-3.4,0-1.8-.08-3.71-3.58-3.71h-2.17Z"/>
    <path d="m114.22,12.96h-2.6v6.17l2.08.6v1.38h-7.83v-1.38l2.11-.6V4.06l-2.08-.6v-1.48h8.38c4.97,0,6.78,1.76,6.78,5.15,0,2.62-1.02,3.98-3.38,4.92l3.54,6.92,2.29.75v1.38h-5.33l-3.95-8.14Zm-2.6-8.95v7.29l3.87-.26c1.23-.61,1.82-1.58,1.82-3.59,0-2.11-.68-3.43-2.87-3.43h-2.83Z"/>
    <path d="m125.06,19.73l2.08-.57V4.06l-2.06-.6v-1.48h9.24c5.23,0,8.28,3.15,8.28,9.35,0,7.02-3.16,9.77-8.68,9.77h-8.87v-1.38Zm5.75-15.72v15.12h2.74c1.88,0,5.12-.3,5.12-7.21,0-5.44-.98-7.91-5.12-7.91h-2.74Z"/>
    <path d="m77.23,31.07c0,2.32-1.34,3.18-3.55,3.18s-3.55-1.3-3.55-3.18v-4.66l-1-.31v-.88h4.08v.88l-.99.31v4.66c0,1.2.46,1.86,1.77,1.86.64,0,1.73-.2,1.73-1.92v-4.6l-1-.31v-.88h3.5v.88l-1,.31v4.66Z"/>
    <path d="m84.26,28.67v4.28l.99.3v.87h-3.44v-.87l1.01-.3v-6.07l-.43-.54-.6-.19v-.93h2.25l4.34,5.46v-4.27l-1-.3v-.89h3.44v.89l-1,.3v7.72h-1.17l-4.4-5.46Z"/>
    <path d="m98.25,32.95l1,.3v.87h-4.09v-.87l1-.3v-6.55l-1-.3v-.88h4.09v.88l-1,.3v6.55Z"/>
    <path d="m153.3,32.95l1,.3v.87h-4.09v-.87l1-.3v-6.55l-1-.3v-.88h4.09v.88l-1,.3v6.55Z"/>
    <path d="m108.6,34.12h-1.92l-2.83-7.71-1-.31v-.88h4.3v.88l-1.01.31,1.88,5.48,1.91-5.48-1-.31v-.88h3.5v.88l-1,.31-2.84,7.71Z"/>
    <path d="m116.69,26.41l-1-.3v-.89h6.99l.07,2.75h-1.12l-.54-1.57h-2.31v2.5h2.31v1.26h-2.31v2.81h2.37l.71-1.56h1.09l-.16,2.7h-7.11v-.87l1-.25v-6.59Z"/>
    <path d="m131.31,30.49h-.76v2.46l1,.3v.87h-4.09v-.87l1-.3v-6.54l-1-.3v-.89h4.06c2.49,0,3.26.96,3.26,2.46,0,.99-.22,1.88-1.44,2.33l1.43,2.9,1.25.38v.82h-3.01l-1.71-3.63Zm-.76-4.08v3.11l1.41-.12c.47-.34.7-.93.7-1.55,0-.89-.23-1.44-1.15-1.44h-.96Z"/>
    <path d="m139.64,31.35h1.24l.26,1.25c.52.32,1.19.52,1.88.52.1,0,.19,0,.29-.01.35-.28.55-.64.55-1.07,0-2.08-4.26-1.15-4.26-4.2,0-1.39,1.27-2.73,3.39-2.73.77,0,1.62.22,2.42.61v2.34h-1.17l-.42-1.49c-.42-.18-1.01-.29-1.44-.29-.08,0-.16,0-.24.01-.4.28-.59.63-.59,1.05,0,1.78,4.22,1.14,4.22,4.12,0,1.61-1.46,2.77-3.41,2.77-.84,0-1.97-.28-2.71-.81v-2.08Z"/>
    <path d="m161.36,26.42h-1.15l-.53,1.59h-1.12v-2.79h7.76v2.79h-1.1l-.51-1.59h-1.25v6.53l1,.3v.87h-4.09v-.87l1-.3v-6.53Z"/>
    <path d="m173.29,30.69l-2.33-4.28-1-.31v-.88h4.3v.88l-1.01.31,1.47,2.9,1.48-2.9-1-.31v-.88h3.51v.88l-1,.31-2.34,4.26v2.28l1,.3v.87h-4.09v-.87l1.01-.3v-2.26Z"/>
    <polygon points="177.05 15.56 175.7 19.13 169.71 19.13 169.71 12.25 173.1 12.25 173.54 14.18 175.05 14.18 175.05 8.38 173.54 8.38 173.1 10.24 169.71 10.24 169.71 4.01 175.44 4.01 176.53 7.71 178.59 7.71 178.46 1.98 163.99 1.98 163.99 3.47 166.04 4.06 166.04 19.15 163.96 19.73 163.96 21.11 178.75 21.11 179.09 15.56 177.05 15.56"/>
    <path d="m102.17,14.53c0,4.85-2.32,6.86-7.06,6.86-4.37,0-7.53-1.75-7.53-6.36V4.06l-2.08-.6v-1.48h7.81v1.48l-2.08.6v10.97c0,2.76,1.27,3.97,4.32,3.97,2.1,0,4.03-1.23,4.03-4.22V4.06l-2.06-.6v-1.48h6.74v1.48l-2.08.6v10.47Z"/>
    <path d="m160.27,14.53c0,4.85-2.32,6.86-7.06,6.86-4.37,0-7.53-1.75-7.53-6.36V4.06l-2.08-.6v-1.48h7.81v1.48l-2.08.6v10.97c0,2.76,1.27,3.97,4.32,3.97,2.1,0,4.03-1.23,4.03-4.22V4.06l-2.06-.6v-1.48h6.74v1.48l-2.08.6v10.47Z"/>
    <path class="cls-1" d="m181.14,34.09c-1.05,0-1.91-.86-1.91-1.91s.86-1.91,1.91-1.91,1.91.86,1.91,1.91-.86,1.91-1.91,1.91Zm0-3.42c-.83,0-1.51.68-1.51,1.51s.68,1.51,1.51,1.51,1.51-.68,1.51-1.51-.68-1.51-1.51-1.51Z"/>
    <path class="cls-1" d="m180.9,32.36v.71h-.38v-1.77h.78c.39,0,.59.21.59.49,0,.24-.13.36-.26.42.09.03.22.12.22.44v.09c0,.12,0,.25.03.34h-.36c-.03-.08-.04-.21-.04-.4v-.03c0-.19-.05-.29-.33-.29h-.25Zm0-.31h.32c.21,0,.29-.08.29-.23s-.1-.23-.28-.23h-.33v.45Z"/>
  </g>
</svg>